<?xml version="1.0" standalone="no"?>
<!DOCTYPE svg PUBLIC "-//W3C//DTD SVG 20010904//EN"
 "http://www.w3.org/TR/2001/REC-SVG-20010904/DTD/svg10.dtd">
<svg version="1.0" xmlns="http://www.w3.org/2000/svg"
 width="700.000000pt" height="700.000000pt" viewBox="0 0 700.000000 700.000000"
 preserveAspectRatio="xMidYMid meet">
<metadata>
Created by potrace 1.14, written by Peter Selinger 2001-2017
</metadata>
<g transform="translate(0.000000,700.000000) scale(0.100000,-0.100000)"
fill="#000000" stroke="none">
<path d="M0 3500 l0 -3500 3500 0 3500 0 0 3500 0 3500 -3500 0 -3500 0 0
-3500z m2102 525 c287 -753 372 -987 428 -1185 19 -63 36 -119 40 -123 4 -4
19 36 35 90 50 178 151 460 433 1208 l279 740 242 3 c132 1 241 -1 240 -5 0
-5 -222 -602 -492 -1328 l-492 -1320 -242 -3 -241 -2 -20 52 c-11 29 -237 626
-501 1326 -265 701 -481 1276 -481 1278 0 2 111 3 247 2 l247 -3 278 -730z
m2488 -426 c107 -165 197 -302 200 -304 3 -2 91 133 195 300 l190 305 248 0
c233 0 247 -1 238 -17 -5 -10 -142 -216 -305 -457 l-295 -439 294 -439 c162
-242 295 -441 295 -444 0 -2 -114 -4 -252 -4 l-253 0 -190 295 c-169 263 -191
293 -203 278 -7 -10 -93 -143 -190 -295 l-177 -278 -253 0 -253 0 19 28 c397
563 592 844 592 853 0 6 -134 209 -298 452 -164 243 -301 448 -306 455 -6 9
47 12 251 12 l258 0 195 -301z"/>
</g>
</svg>
